# xmcd
#
# Track frame offsets:
#	150
#	16994
#	32417
#	49324
#	69735
#	87360
#	104984
#	121761
#	135880
#	157049
#	175869
#	193604
#	208556
#	224458
#	243162
#	261980
#	275533
#	292860
#	317725
#
# Disc length: 4242 seconds
#
# Revision: 1
# Processed by: cddbd v1.5.2PL0 Copyright (c) Steve Scherf et al.
# Submitted via: audiograbber 1.83.01
#
DISCID=17109013
DTITLE=Various Artist - TopTunes - Guy Country Karaoke
DYEAR=1900
DGENRE=Country
TTITLE0=TRACY BYRD - 01 - A GOOD WAY TO GET ON MY BAD SIDE
TTITLE1=BROOKS and DUNN - 02 - AIN'T NOTHING 'BOUT YOU
TTITLE2=MARK WILLS - 03 - ALMOST DOESN'T COUNT
TTITLE3=TIM McGRAW - 04 - ANGRY ALL THE TIME
TTITLE4=BLAKE SHELTON - 05 - AUSTIN
TTITLE5=KEITH URBAN - 06 - BUT FOR THE GRACE OF GOD
TTITLE6=KENNY ROGERS - 07 - BUY ME A ROSE
TTITLE7=KENNY CHESNEY - 08 - DON'T HAPPEN TWICE
TTITLE8=DIXIE CHICKS - 09 - GOODBYE EARL
TTITLE9=CLEDUS T. JUDD - 10 - GOODBYE SQUIRREL (parody Goodbye Earl)
TTITLE10=TIM McGRAW - 11 - GROWN MEN DON'T CRY
TTITLE11=ANDY GRIGGS - 12 - HOW COOL IS THAT
TTITLE12=TOBY KEITH - 13 - HOW DO YOU LIKE ME NOW
TTITLE13=KENNY CHESNEY - 14 - I LOST IT
TTITLE14=GEORGE STRAIT - 15 - IF YOU CAN DO ANYTHING ELSE
TTITLE15=TOBY KEITH - 16 - I'M JUST TALKIN' ABOUT TONIGHT
TTITLE16=TRAVIS TRITT - 17 - IT'S A GREAT DAY TO BE ALIVE
TTITLE17=AARON TIPPEN - 18 - KISS THIS
TTITLE18=Data Track
EXTD=
EXTT0=
EXTT1=
EXTT2=
EXTT3=
EXTT4=
EXTT5=
EXTT6=
EXTT7=
EXTT8=
EXTT9=
EXTT10=
EXTT11=
EXTT12=
EXTT13=
EXTT14=
EXTT15=
EXTT16=
EXTT17=
EXTT18=
PLAYORDER=
